# Blender v2.90.0 OBJ File: 'test_cover.blend'
# www.blender.org
mtllib test_cover.mtl
o Plane
v -0.675641 -0.675641 0.000000
v 0.760404 -0.760404 -0.723942
v -0.760404 0.760404 -0.723942
v 0.675641 0.675641 0.000000
v 0.000000 -1.000000 0.180935
v 0.000000 1.000000 0.180935
v -0.619343 -0.888241 -0.507886
v 0.135667 -1.621256 -0.360732
vt 0.500000 0.000000
vt 1.000000 0.000000
vt 1.000000 1.000000
vt 0.000000 0.000000
vt 0.500000 1.000000
vt 0.000000 1.000000
vt 0.000000 0.000000
vt 0.500000 0.000000
vn -0.1553 -0.4577 0.8755
vn 0.7729 -0.2486 0.5837
vn 0.4386 -0.0802 0.8950
vn -0.5382 -0.3475 0.7678
vn -0.2834 0.1191 0.9516
vn -0.7729 0.2486 0.5837
vn -0.5689 -0.7216 0.3945
vn -0.6532 -0.5736 0.4942
usemtl None
s 1
f 5/1/1 2/2/2 4/3/3
f 1/4/4 5/1/1 6/5/5
f 3/6/6 1/4/4 6/5/5
f 6/5/5 5/1/1 4/3/3
f 5/1/1 1/4/4 7/7/7
f 8/8/8 5/1/1 7/7/7
