# Blender v2.90.0 OBJ File: 'cool_computer.blend'
# www.blender.org
mtllib testrock.mtl
o Rock_Plane.006
v -0.459639 3.574721 1.000000
v -1.000000 3.574721 0.446950
v 1.000000 3.574721 0.446950
v 0.439273 3.574721 1.000000
v -1.000000 3.574721 -0.454958
v 1.000000 3.574721 -0.454958
v -1.000000 2.923803 -0.454383
v -0.459251 2.923803 1.000000
v -1.000000 2.923803 0.446054
v 1.518086 2.923803 0.446054
v 0.962059 2.923803 1.000000
v 1.518086 2.923803 -0.454383
v -1.000000 2.308615 -0.452612
v -0.458056 2.308615 1.483815
v -1.000000 2.308615 0.931760
v 1.518086 2.308615 0.931760
v 0.966914 2.308615 1.483815
v 1.518086 2.308615 -0.452612
v -1.378568 1.552057 -0.449503
v -0.836624 1.552057 1.483815
v -1.378568 1.552057 0.935113
v 1.518086 1.552057 0.935113
v 0.970129 1.552057 1.483815
v 1.518086 1.552057 -0.449503
v -1.378568 0.819405 -0.987616
v -0.837819 0.819405 1.483815
v -1.378568 0.819405 0.937024
v 1.518086 0.819405 0.937023
v 0.971960 0.819405 1.483815
v 1.518086 0.819405 -0.987616
v -0.837819 0.819405 -1.539788
v -1.378568 -0.001574 -0.988444
v -1.378568 -0.001574 0.937644
v -0.838207 -0.001574 1.483815
v 0.972555 -0.001574 1.483815
v 1.518086 -0.001574 0.937644
v 1.518086 -0.001574 -0.988443
v 0.971960 0.819405 -1.539788
v 0.439273 3.574721 -1.000000
v 0.962059 2.923803 -1.000000
v -0.459251 2.923803 -1.000000
v -0.459639 3.574721 -1.000000
v 0.966914 2.308615 -1.000000
v -0.458056 2.308615 -1.000000
v 0.970129 1.552057 -1.000000
v -0.836624 1.552057 -1.000000
v 0.971956 -0.001574 -1.539785
v -0.837819 -0.001574 -1.539787
vt 0.385189 0.562794
vt 0.451857 0.654822
vt 0.385189 0.654862
vt 0.427088 0.000846
vt 0.513736 0.142318
vt 0.427088 0.142636
vt 0.385561 0.450256
vt 0.442205 0.302843
vt 0.590405 0.450256
vt 0.364080 0.050593
vt 0.364080 0.142817
vt 0.000243 0.365054
vt 0.085451 0.457337
vt 0.000243 0.457429
vt 0.532017 0.654700
vt 0.609505 0.508422
vt 0.609505 0.693474
vt 0.451857 0.509249
vt 0.148460 0.365294
vt 0.148460 0.507084
vt 0.225948 0.365613
vt 0.300988 0.507624
vt 0.225948 0.507428
vt 0.588776 0.000307
vt 0.588776 0.197432
vt 0.672862 0.000243
vt 0.672862 0.197517
vt 0.684545 0.693596
vt 0.684545 0.508235
vt 0.768631 0.693636
vt 0.300988 0.310498
vt 0.385074 0.507687
vt 0.753605 0.076705
vt 0.711794 0.000364
vt 0.791885 0.000243
vt 0.849501 0.817439
vt 0.805973 0.893424
vt 0.769118 0.816599
vt 0.920505 0.821587
vt 0.997702 0.890589
vt 0.918544 0.888226
vt 0.904502 0.314350
vt 0.828641 0.384161
vt 0.825888 0.317550
vt 0.753199 0.139714
vt 0.673817 0.076641
vt 0.804981 0.744775
vt 0.884877 0.745505
vt 0.966321 0.750966
vt 0.999757 0.823952
vt 0.902026 0.251390
vt 0.823197 0.254598
vt 0.871424 0.170326
vt 0.673637 0.139649
vt 0.752902 0.217202
vt 0.673349 0.217138
vt 0.805932 0.667292
vt 0.916613 0.667237
vt 0.995573 0.669405
vt 0.806757 0.592256
vt 0.885353 0.668018
vt 0.997494 0.594390
vt 0.918759 0.592228
vt 0.712342 0.301684
vt 0.828101 0.087642
vt 0.907185 0.084253
vt 0.824561 0.003630
vt 0.885906 0.592980
vt 0.807571 0.508174
vt 0.886632 0.508897
vt 0.999757 0.510334
vt 0.297411 0.142876
vt 0.255025 0.654639
vt 0.177537 0.508361
vt 0.255025 0.508691
vt 0.384702 0.562733
vt 0.318033 0.654761
vt 0.318033 0.509188
vt 0.084330 0.693535
vt 0.177537 0.693413
vt 0.241579 0.309927
vt 0.296924 0.056713
vt 0.296924 0.253987
vt 0.791885 0.301866
vt 0.712210 0.385770
vt 0.056118 0.309927
vt 0.000243 0.056713
vt 0.056179 0.000244
vt 0.241540 0.000243
vt 0.000243 0.508174
vt 0.084330 0.508174
vt 0.513736 0.000503
vt 0.385561 0.358188
vt 0.534581 0.302843
vt 0.590405 0.358188
vt 0.534581 0.507687
vt 0.442206 0.507687
vt 0.085451 0.365113
vt 0.532017 0.508752
vt 0.768631 0.508174
vt 0.385074 0.310413
vt 0.886632 0.894465
vt 0.907185 0.380964
vt 0.887119 0.748710
vt 0.792372 0.173618
vt 0.903585 0.000243
vt 0.921095 0.508174
vt 0.297411 0.050501
vt 0.384702 0.654801
vt 0.791693 0.385952
vt 0.000243 0.253987
vt 0.000243 0.693535
vn 0.0000 0.0000 -1.0000
vn 0.8943 -0.4475 0.0000
vn 0.0000 -1.0000 0.0000
vn 1.0000 0.0000 0.0000
vn -0.7824 -0.6228 0.0000
vn 0.0000 -0.6182 -0.7860
vn -1.0000 0.0000 0.0000
vn -0.6082 -0.4885 0.6257
vn -0.6156 -0.4891 -0.6179
vn 0.7153 0.0004 -0.6989
vn 0.7103 0.0006 0.7039
vn -0.7004 -0.0055 0.7137
vn -0.6171 -0.4894 -0.6161
vn 0.6266 -0.4829 -0.6117
vn 0.7106 0.0020 0.7036
vn 0.6696 -0.3350 0.6629
vn -0.7087 0.0029 0.7055
vn -0.7077 -0.0031 -0.7065
vn 0.6696 -0.3380 -0.6614
vn -0.7076 -0.0018 -0.7066
vn 0.7110 -0.0012 -0.7032
vn -0.6293 -0.4601 0.6264
vn 0.6347 -0.4590 0.6216
vn 0.7145 -0.0007 0.6997
vn -0.7075 -0.0005 -0.7067
vn 0.7110 -0.0005 -0.7032
vn 0.0000 0.0000 1.0000
vn 0.0000 -0.5932 0.8051
vn 0.0000 1.0000 0.0000
vn -0.7110 -0.0007 0.7032
vn -0.6119 -0.4865 0.6236
vn -0.6116 -0.4912 -0.6201
vn 0.7156 0.0010 -0.6985
vn 0.7101 0.0004 0.7041
vn -0.7047 0.0020 0.7095
vn -0.6160 -0.4882 -0.6183
vn 0.6254 -0.4816 -0.6139
vn 0.7103 0.0014 0.7039
vn 0.6718 -0.3335 0.6614
vn -0.7047 -0.0030 0.7095
vn -0.7076 -0.0030 -0.7066
vn 0.6721 -0.3363 -0.6597
vn -0.7075 -0.0018 -0.7067
vn 0.7115 -0.0018 -0.7027
vn -0.6308 -0.4613 0.6239
vn 0.6335 -0.4580 0.6236
vn 0.7139 0.0000 0.7002
vn 0.7109 -0.0003 -0.7033
vn -0.7105 0.0000 0.7037
usemtl textures/test1
s off
f 4/1/1 8/2/1 1/3/1
f 15/4/2 19/5/2 13/6/2
usemtl textures/test2
f 4/7/3 2/8/3 39/9/3
usemtl textures/test1
f 9/10/4 13/6/4 7/11/4
f 6/12/5 10/13/5 3/14/5
f 14/15/1 23/16/1 20/17/1
f 11/18/6 14/15/6 8/2/6
f 10/13/7 18/19/7 16/20/7
f 24/21/7 28/22/7 22/23/7
f 16/20/7 24/21/7 22/23/7
f 19/5/4 27/24/4 25/25/4
f 25/25/4 33/26/4 32/27/4
f 23/16/1 26/28/1 20/17/1
f 29/29/1 34/30/1 26/28/1
f 30/31/7 36/32/7 28/22/7
usemtl textures/test2
f 40/33/8 6/34/8 39/35/8
f 11/36/9 3/37/9 10/38/9
f 8/39/10 2/40/10 1/41/10
f 41/42/11 5/43/11 7/44/11
f 43/45/12 12/46/12 40/33/12
f 11/36/13 16/47/13 17/48/13
f 8/39/14 15/49/14 9/50/14
f 44/51/15 7/44/15 13/52/15
f 13/52/16 46/53/16 44/51/16
f 18/54/17 45/55/17 24/56/17
f 22/57/18 17/48/18 16/47/18
f 15/49/19 20/58/19 21/59/19
f 28/60/20 23/61/20 22/57/20
f 27/62/21 20/58/21 26/63/21
f 45/55/22 30/64/22 24/56/22
f 46/53/23 25/65/23 31/66/23
f 32/67/24 31/66/24 25/65/24
f 29/68/25 36/69/25 35/70/25
f 26/63/26 33/71/26 27/62/26
usemtl textures/test1
f 5/72/4 9/10/4 7/11/4
f 44/73/27 45/74/27 43/75/27
f 39/76/27 41/77/27 40/78/27
f 40/78/27 44/73/27 43/75/27
f 31/79/28 45/74/28 46/80/28
usemtl textures/test2
f 34/81/29 32/82/29 33/83/29
f 38/84/30 37/85/30 30/64/30
f 35/86/29 37/87/29 47/88/29
f 34/81/29 47/88/29 48/89/29
usemtl textures/test1
f 31/79/27 47/90/27 38/91/27
f 4/1/1 11/18/1 8/2/1
f 15/4/2 21/92/2 19/5/2
usemtl textures/test2
f 4/7/3 1/93/3 2/8/3
f 2/8/3 5/94/3 39/9/3
f 5/94/3 42/95/3 39/9/3
f 39/9/3 6/96/3 3/97/3
f 4/7/3 39/9/3 3/97/3
usemtl textures/test1
f 9/10/4 15/4/4 13/6/4
f 6/12/5 12/98/5 10/13/5
f 14/15/1 17/99/1 23/16/1
f 11/18/6 17/99/6 14/15/6
f 10/13/7 12/98/7 18/19/7
f 24/21/7 30/31/7 28/22/7
f 16/20/7 18/19/7 24/21/7
f 19/5/4 21/92/4 27/24/4
f 25/25/4 27/24/4 33/26/4
f 23/16/1 29/29/1 26/28/1
f 29/29/1 35/100/1 34/30/1
f 30/31/7 37/101/7 36/32/7
usemtl textures/test2
f 40/33/31 12/46/31 6/34/31
f 11/36/32 4/102/32 3/37/32
f 8/39/33 9/50/33 2/40/33
f 41/42/34 42/103/34 5/43/34
f 43/45/35 18/54/35 12/46/35
f 11/36/36 10/38/36 16/47/36
f 8/39/37 14/104/37 15/49/37
f 44/51/38 41/42/38 7/44/38
f 13/52/39 19/105/39 46/53/39
f 18/54/40 43/45/40 45/55/40
f 22/57/41 23/61/41 17/48/41
f 15/49/42 14/104/42 20/58/42
f 28/60/43 29/68/43 23/61/43
f 27/62/44 21/59/44 20/58/44
f 45/55/45 38/84/45 30/64/45
f 46/53/46 19/105/46 25/65/46
f 32/67/47 48/106/47 31/66/47
f 29/68/25 28/60/25 36/69/25
f 26/63/48 34/107/48 33/71/48
usemtl textures/test1
f 5/72/4 2/108/4 9/10/4
f 44/73/27 46/80/27 45/74/27
f 39/76/27 42/109/27 41/77/27
f 40/78/27 41/77/27 44/73/27
f 31/79/28 38/91/28 45/74/28
usemtl textures/test2
f 34/81/29 48/89/29 32/82/29
f 38/84/49 47/110/49 37/85/49
f 35/86/29 36/111/29 37/87/29
f 34/81/29 35/86/29 47/88/29
usemtl textures/test1
f 31/79/27 48/112/27 47/90/27
